<svg width="494" height="420" viewBox="0 0 494 420" fill="none" xmlns="http://www.w3.org/2000/svg">
<path d="M223.07 2.4269L220.424 0.502854C219.222 -0.218665 217.418 -0.218665 215.614 0.863614L100.772 67.2434V230.307V235.598L103.538 237.281V234.035L215.494 169.338C219.222 167.174 222.228 162.003 222.228 157.674V4.83197C222.228 4.11045 222.108 3.50918 221.987 2.90792L223.07 2.4269Z" fill="#5D3972"/>
<path d="M224.994 159.237C224.994 163.566 221.987 168.737 218.259 170.902L103.538 237.161V68.8067L218.259 2.54716C221.987 0.382601 224.994 2.1864 224.994 6.39526V159.237Z" fill="#35084F"/>
<path d="M107.386 80.1105L220.304 15.0535L256.139 35.9775L143.703 100.914L107.386 80.1105Z" fill="#FBF6D5"/>
<path d="M107.386 80.1105L220.304 15.0535L223.43 16.8573L110.994 81.9143L107.386 80.1105Z" fill="#D7CEDC"/>
<path d="M128.791 92.6168L241.709 27.5598L244.956 29.3636L132.399 94.4206L128.791 92.6168Z" fill="#D7CEDC"/>
<path d="M261.43 24.1928L258.785 22.2687C257.582 21.5472 255.778 21.5472 253.975 22.6295L139.253 88.889V257.243L253.975 190.984C257.703 188.819 260.709 183.648 260.709 179.319V26.5978C260.709 25.8763 260.589 25.2751 260.468 24.6738L261.43 24.1928Z" fill="#5D3972"/>
<path d="M263.715 181.484C263.715 185.813 260.709 190.984 256.981 193.148L142.26 259.408V91.0535L256.981 24.794C260.709 22.6295 263.715 24.4333 263.715 28.6421V181.484Z" fill="#35084F"/>
<path d="M100.772 67.2433L142.139 91.0535C142.139 91.0535 143.943 260.25 142.139 259.408C140.335 258.566 100.772 235.598 100.772 235.598V67.2433Z" fill="#5D3972"/>
<path d="M106.905 66.8826L145.266 89.2497L142.139 91.0535L103.538 68.8067L106.905 66.8826Z" fill="#5D3972"/>
<path d="M136.247 130.256L107.506 113.661V91.6548L136.247 108.25V130.256Z" fill="#DD8C1F"/>
<path d="M263.715 189.18V38.5029C263.715 34.1738 260.709 32.4902 256.981 34.6548L142.26 100.914V259.408L263.715 189.18Z" fill="#B3B3B3"/>
<path d="M282.115 35.6168L279.469 33.6928C278.267 32.9712 276.463 32.9712 274.659 34.0535L159.937 100.313V263.376V268.667L162.703 270.351V267.104L274.659 202.408C278.387 200.243 281.393 195.073 281.393 190.743V38.0219C281.393 37.3004 281.273 36.6991 281.153 36.0978L282.115 35.6168Z" fill="#AF9D23"/>
<path d="M284.038 192.427C284.038 196.756 281.032 201.927 277.304 204.091L162.582 270.351V101.997L277.304 35.737C281.032 33.5725 284.038 35.3763 284.038 39.5851V192.427Z" fill="#E9D12F"/>
<path d="M166.43 113.3L279.348 48.2434L315.304 69.1674L202.747 134.104L166.43 113.3Z" fill="#FBF6D5"/>
<path d="M166.43 113.3L279.348 48.2434L282.475 50.0472L170.038 115.104L166.43 113.3Z" fill="#D7CEDC"/>
<path d="M187.835 125.807L300.753 60.7497L304 62.5535L191.443 127.61L187.835 125.807Z" fill="#D7CEDC"/>
<path d="M320.475 57.3827L317.829 55.4586C316.627 54.7371 314.823 54.7371 313.019 55.8194L198.297 122.079V290.433L313.019 224.174C316.747 222.009 319.753 216.838 319.753 212.509V59.7877C319.753 59.0662 319.633 58.4649 319.513 57.8637L320.475 57.3827Z" fill="#AF9D23"/>
<path d="M322.759 214.674C322.759 219.003 319.753 224.174 316.025 226.338L201.304 292.598V124.243L316.025 57.9839C319.753 55.8193 322.759 57.6231 322.759 61.832V214.674Z" fill="#E9D12F"/>
<path d="M159.816 100.433L201.184 124.243V292.598L159.816 268.788V100.433Z" fill="#AF9D23"/>
<path d="M165.949 100.073L204.31 122.44L201.184 124.243L162.582 101.997L165.949 100.073Z" fill="#AF9D23"/>
<path d="M195.291 163.446L166.551 146.971V124.845L195.291 141.44V163.446Z" fill="#5954FF"/>
<path d="M322.759 222.37V71.6927C322.759 67.3636 319.753 65.6801 316.025 67.8446L201.304 134.104V292.598L322.759 222.37Z" fill="#B3B3B3"/>
<path d="M341.64 70.2497L338.994 68.3256C337.792 67.6041 335.988 67.6041 334.184 68.6864L219.463 134.946V298.009V303.3L222.229 304.984V301.737L334.184 237.041C337.912 234.876 340.918 229.705 340.918 225.376V72.6548C340.918 71.9332 340.798 71.332 340.678 70.7307L341.64 70.2497Z" fill="#009C7D"/>
<path d="M343.563 227.06C343.563 231.389 340.557 236.56 336.829 238.724L222.108 304.984V136.629L336.829 70.3699C340.557 68.2054 343.563 70.0092 343.563 74.218V227.06Z" fill="#084F41"/>
<path d="M225.956 147.933L338.873 82.8763L374.709 103.8L262.272 168.737L225.956 147.933Z" fill="#FBF6D5"/>
<path d="M225.956 147.933L338.873 82.8763L342 84.6801L229.563 149.617L225.956 147.933Z" fill="#D7CEDC"/>
<path d="M247.361 160.44L360.279 95.3826L363.525 97.1864L250.968 162.123L247.361 160.44Z" fill="#D7CEDC"/>
<path d="M380 92.0155L377.354 90.0915C376.152 89.37 374.348 89.37 372.544 90.4522L257.823 156.712V325.066L372.544 258.807C376.272 256.642 379.278 251.471 379.278 247.142V94.3003C379.278 93.5788 379.158 92.9776 379.038 92.3763L380 92.0155Z" fill="#009C7D"/>
<path d="M382.165 249.186C382.165 253.516 379.158 258.686 375.43 260.851L260.709 327.111V158.756L375.43 92.4966C379.158 90.332 382.165 92.1358 382.165 96.3447V249.186Z" fill="#084F41"/>
<path d="M219.342 134.946L260.709 158.756V327.11L219.342 303.3V134.946Z" fill="#009C7D"/>
<path d="M225.475 134.705L263.835 157.072L260.709 158.756L222.108 136.629L225.475 134.705Z" fill="#009C7D"/>
<path d="M254.696 198.079L226.076 181.484V159.478L254.696 176.072V198.079Z" fill="#C302D3"/>
<path d="M370.139 177.035L284.038 226.699V209.142L370.139 159.478V177.035Z" fill="white"/>
<path opacity="0.1" d="M372.905 402.509L400.563 418.383C402.487 419.465 404.892 419.465 406.816 418.383L490.994 368.237C492.918 367.155 494 365.11 494 362.826C494 360.661 492.798 358.617 490.873 357.534L486.905 355.25L385.171 404.072L372.905 402.509Z" fill="black"/>
<path d="M319.152 368.718C328.915 368.718 336.829 360.696 336.829 350.8C336.829 340.905 328.915 332.883 319.152 332.883C309.389 332.883 301.475 340.905 301.475 350.8C301.475 360.696 309.389 368.718 319.152 368.718Z" fill="#E9D12F"/>
<path d="M310.013 359.338C306.766 361.262 306.766 364.269 310.013 366.193L389.019 411.769C392.266 413.693 397.557 413.693 400.924 411.769L487.025 362.104C490.272 360.18 490.272 357.174 487.025 355.25L408.019 309.674C404.772 307.75 399.481 307.75 396.114 309.674L310.013 359.338Z" fill="#E9D12F"/>
<path d="M311.576 341.661L394.551 389.522L484.019 337.933L401.044 290.072L311.576 341.661Z" fill="#DEE9F6"/>
<path d="M311.576 361.623L393.829 409.123C394.31 409.364 394.911 409.364 395.272 409.123L484.019 357.895L401.044 310.034L311.576 361.623Z" fill="#DEE9F6"/>
<path d="M311.576 341.661V361.623L337.43 376.535L342.481 359.819L311.576 341.661Z" fill="#DEE9F6"/>
<path d="M484.019 357.895V339.737L467.905 348.997L469.709 366.193L484.019 357.895Z" fill="#DEE9F6"/>
<path d="M310.975 344.307C307.728 342.383 307.728 339.376 310.975 337.452L397.076 287.788C400.323 285.864 405.614 285.864 408.981 287.788L484.139 331.199V342.503L401.886 390.003C398.639 391.927 393.348 391.927 389.981 390.003L310.975 344.307Z" fill="#CBCBCA"/>
<path d="M310.975 334.686C307.728 336.61 307.728 339.617 310.975 341.541L389.981 387.117C393.228 389.041 398.519 389.041 401.886 387.117L487.987 337.452C491.234 335.528 491.234 332.522 487.987 330.598L408.861 285.022C405.614 283.098 400.323 283.098 396.956 285.022L310.975 334.686Z" fill="#E9D12F"/>
<path d="M307.608 359.218L311.576 361.623V341.781L307.608 339.497V359.218Z" fill="#AF9D23"/>
<path d="M311.576 359.699L393.829 407.079C394.31 407.319 394.911 407.319 395.392 407.079L484.019 354.047V357.775L395.392 409.003C394.911 409.243 394.31 409.243 393.709 409.003L311.576 361.623V359.699Z" fill="#CBCBCA"/>
<path d="M308.81 339.376L310.013 340.94L308.57 340.098L308.81 339.376Z" fill="#F9A01B"/>
<path d="M334.785 374.971L343.082 379.781V368.718L334.785 363.908V374.971Z" fill="#084F41"/>
<path d="M331.418 337.813C339.653 337.813 346.329 331.029 346.329 322.661C346.329 314.293 339.653 307.509 331.418 307.509C323.182 307.509 316.506 314.293 316.506 322.661C316.506 331.029 323.182 337.813 331.418 337.813Z" fill="#084F41"/>
<path d="M323.722 329.997C320.956 331.56 320.956 334.205 323.722 335.769L390.462 374.25C393.228 375.813 397.677 375.813 400.443 374.25L473.196 332.281C475.962 330.718 475.962 328.072 473.196 326.509L406.456 288.028C403.69 286.465 399.241 286.465 396.475 288.028L323.722 329.997Z" fill="#084F41"/>
<path d="M325.044 315.085L395.152 355.49L470.671 311.838L400.563 271.433L325.044 315.085Z" fill="#DEE9F6"/>
<path d="M325.044 331.921L394.43 371.965C394.791 372.205 395.272 372.205 395.753 371.965L470.671 328.674L400.563 288.269L325.044 331.921Z" fill="#DEE9F6"/>
<path d="M325.044 315.085V331.921L346.81 344.427L351.139 330.357L325.044 315.085Z" fill="#DEE9F6"/>
<path d="M470.671 328.674V313.402L457.082 321.218L458.525 335.769L470.671 328.674Z" fill="#DEE9F6"/>
<path d="M324.563 317.25C321.797 315.686 321.797 313.041 324.563 311.478L397.316 269.509C400.082 267.946 404.532 267.946 407.297 269.509L470.791 306.186V315.686L401.285 355.731C398.519 357.294 394.07 357.294 391.304 355.731L324.563 317.25Z" fill="#CBCBCA"/>
<path d="M324.563 309.193C321.797 310.756 321.797 313.402 324.563 314.965L391.304 353.446C394.07 355.009 398.519 355.009 401.285 353.446L474.038 311.478C476.804 309.914 476.804 307.269 474.038 305.705L407.297 267.224C404.532 265.661 400.082 265.661 397.316 267.224L324.563 309.193Z" fill="#084F41"/>
<path d="M321.677 329.876L325.044 331.921V315.205L321.677 313.281V329.876Z" fill="#009C7D"/>
<path d="M325.044 330.237L394.551 370.281C394.911 370.522 395.392 370.522 395.873 370.281L470.791 325.547V328.794L396.114 371.965C395.633 372.205 395.032 372.205 394.43 371.965L325.044 331.921V330.237Z" fill="#CBCBCA"/>
<path d="M322.639 313.041L323.722 314.364L322.519 313.642L322.639 313.041Z" fill="#EF5451"/>
<path d="M344.646 343.224L351.62 347.193V337.813L344.646 333.845V343.224Z" fill="#AF9D23"/>
<path d="M386.854 291.876L423.171 312.921L428.462 309.794L392.146 288.75L386.854 291.876Z" fill="white"/>
<path d="M385.652 301.857L407.177 314.364L412.468 311.237L390.943 298.851L385.652 301.857Z" fill="#E655E2"/>
<path opacity="0.1" d="M357.994 338.535C359.196 339.256 360.278 339.136 360.88 338.414L387.335 322.3C388.177 322.541 389.019 322.541 389.62 322.18L392.627 320.376C393.468 319.895 393.949 319.174 394.07 318.212L395.994 317.009C414.633 325.908 445.057 319.775 447.462 304.142C447.703 302.579 447.582 294.642 447.582 294.161C448.544 273.357 396.956 267.946 385.892 288.148C384.089 291.395 384.449 293.079 384.449 300.053C384.449 302.819 384.209 305.826 386.734 309.553C383.247 311.718 382.165 311.838 382.165 314.243L355.589 330.478C353.424 331.68 354.987 336.731 357.994 338.535ZM391.544 298.129C391.785 297.769 392.025 297.288 392.386 296.927C401.044 285.142 430.867 284.661 439.766 296.927C440.006 297.288 440.367 297.769 440.608 298.129C433.152 311.357 399.481 312.199 391.544 298.129Z" fill="black"/>
<path d="M381.203 289.231V297.648C381.203 303.781 385.171 308.11 390.462 311.237C409.703 322.3 444.816 315.446 444.696 297.528V290.193C444.816 271.553 409.342 265.3 390.462 276.123C385.411 279.009 381.082 283.459 381.203 289.231ZM388.297 293.68C389.5 291.516 391.665 289.471 394.671 287.667C408.38 279.731 431.709 283.098 437.601 293.68C436.399 295.845 434.234 297.889 431.228 299.693C417.519 307.509 394.19 304.142 388.297 293.68Z" fill="#DBDBDB"/>
<path d="M394.671 285.262C408.38 277.326 431.709 280.693 437.601 291.275C437.361 291.636 437.12 292.117 436.76 292.478C429.785 282.978 407.779 280.212 394.671 287.788C392.266 289.231 390.462 290.794 389.139 292.478C388.899 292.117 388.538 291.636 388.297 291.275C389.5 288.99 391.665 286.946 394.671 285.262Z" fill="#B3B3B3"/>
<path d="M390.462 308.712C409.703 319.775 444.816 312.921 444.696 295.003C444.696 295.003 444.696 294.041 444.696 292.959C444.696 295.003 444.696 297.528 444.696 297.528C444.816 315.566 409.703 322.421 390.462 311.237C385.171 308.231 381.082 303.902 381.203 297.648C381.203 297.648 381.203 294.402 381.203 291.876C381.203 293.56 381.203 295.123 381.203 295.123C381.082 301.376 385.171 305.705 390.462 308.712Z" fill="#CECECE"/>
<path d="M390.462 276.123C378.076 283.338 378.076 294.883 390.462 302.098C402.848 309.313 422.93 309.313 435.437 302.098C447.823 294.883 447.823 283.338 435.437 276.123C422.93 268.908 402.848 268.908 390.462 276.123ZM394.671 278.528C404.772 272.756 421.127 272.756 431.228 278.528C441.329 284.3 441.329 293.8 431.228 299.693C421.127 305.465 404.772 305.465 394.671 299.693C384.57 293.8 384.57 284.3 394.671 278.528Z" fill="#F2F2F2"/>
<path d="M388.297 291.155L387.696 292.357C387.816 292.838 387.937 293.079 388.297 293.56L389.139 292.357L388.297 291.155Z" fill="#B3B3B3"/>
<path d="M437.481 291.155L438.082 292.357C437.962 292.838 437.842 293.079 437.481 293.56L436.639 292.357L437.481 291.155Z" fill="#B3B3B3"/>
<path opacity="0.15" d="M412.468 303.3C419.203 303.3 425.576 301.737 430.266 299.091C434.835 296.446 437.361 292.959 437.361 289.351C437.361 285.743 434.835 282.256 430.266 279.61C425.576 276.845 419.203 275.402 412.468 275.402C405.734 275.402 399.361 276.965 394.671 279.61C390.101 282.256 387.576 285.743 387.576 289.351C387.576 292.959 390.101 296.446 394.671 299.091C399.481 301.737 405.734 303.3 412.468 303.3Z" fill="#34B2CC"/>
<path opacity="0.41" d="M436.278 291.155C436.278 287.547 433.753 284.06 429.184 281.414C424.494 278.648 418.12 277.205 411.386 277.205C404.652 277.205 398.278 278.769 393.589 281.414C391.424 282.617 389.741 284.06 388.538 285.623C389.62 283.338 391.785 281.294 394.671 279.61C399.361 276.845 405.734 275.402 412.468 275.402C419.203 275.402 425.576 276.965 430.266 279.61C434.835 282.256 437.361 285.743 437.361 289.351C437.361 291.275 436.639 293.199 435.196 295.003C436.038 293.68 436.278 292.357 436.278 291.155Z" fill="white"/>
<path d="M394.671 299.693C404.772 305.465 421.127 305.465 431.228 299.693C441.329 293.921 441.329 284.421 431.228 278.648C421.127 272.876 404.772 272.876 394.671 278.648C384.57 284.421 384.57 293.921 394.671 299.693ZM387.937 289.11C387.937 285.503 390.462 282.016 395.032 279.37C399.842 276.604 406.095 275.161 412.829 275.161C419.563 275.161 425.937 276.724 430.627 279.37C435.196 282.016 437.722 285.503 437.722 289.11C437.722 292.718 435.196 296.205 430.627 298.851C425.816 301.617 419.563 303.06 412.829 303.06C406.095 303.06 399.722 301.497 395.032 298.851C390.462 296.326 387.937 292.838 387.937 289.11Z" fill="#CCCCCC"/>
<path d="M357.392 334.085L394.671 311.357L389.741 302.94L352.101 326.028L357.392 334.085Z" fill="#5D3972"/>
<path d="M351.139 328.313C351.139 330.478 352.703 333.123 354.506 334.205C356.43 335.288 357.873 334.446 357.873 332.281C357.873 330.117 356.31 327.471 354.506 326.389C352.703 325.186 351.139 326.028 351.139 328.313Z" fill="#35084F"/>
<path d="M380.962 306.427L383.487 304.864C386.253 303.18 390.943 308.231 390.943 312.68C390.943 314.003 390.582 314.965 389.38 315.686L386.253 317.49C383.247 319.294 378.677 314.003 378.677 309.674C378.797 307.87 379.519 307.269 380.962 306.427Z" fill="#35084F"/>
<path d="M388.658 305.224C388.658 307.389 390.222 310.035 392.025 311.117C393.949 312.199 395.392 311.357 395.392 309.193C395.392 307.028 393.829 304.383 392.025 303.3C390.222 302.218 388.658 303.06 388.658 305.224Z" fill="#5D3972"/>
<path d="M378.316 311.478C378.316 313.642 379.88 316.408 381.804 317.49C383.728 318.572 385.291 317.731 385.291 315.446C385.291 313.281 383.728 310.515 381.804 309.433C379.88 308.351 378.316 309.193 378.316 311.478Z" fill="#5D3972"/>
<path d="M84.4177 25.6358L82.6139 24.313C81.7721 23.832 80.5696 23.832 79.2468 24.5535L0 70.2497V182.807V186.414L1.92405 187.497V185.212L79.1266 140.718C81.6519 139.275 83.8165 135.667 83.8165 132.661V27.3193C83.8165 26.8383 83.6962 26.3573 83.6962 25.9965L84.4177 25.6358Z" fill="#009C7D"/>
<path d="M85.7405 133.864C85.7405 136.87 83.6962 140.478 81.0507 141.921L1.92406 187.617V71.4523L81.0507 25.7561C83.576 24.313 85.7405 25.5156 85.7405 28.4016V133.864Z" fill="#084F41"/>
<path d="M4.56962 79.2687L82.4937 34.294L107.266 48.8446L29.5823 93.5788L4.56962 79.2687Z" fill="#FBF6D5"/>
<path d="M4.56962 79.2687L82.4937 34.294L84.6582 35.6168L7.09493 80.4712L4.56962 79.2687Z" fill="#D7CEDC"/>
<path d="M19.3608 87.8067L97.2848 42.9522L99.4494 44.275L21.8861 89.0092L19.3608 87.8067Z" fill="#D7CEDC"/>
<path d="M110.873 40.6674L109.07 39.3447C108.228 38.8637 107.025 38.8637 105.703 39.5852L26.4557 85.2814V201.446L105.582 155.75C108.108 154.307 110.272 150.699 110.272 147.693V42.2307C110.272 41.7497 110.152 41.2687 110.152 40.908L110.873 40.6674Z" fill="#009C7D"/>
<path d="M112.437 149.136C112.437 152.142 110.392 155.75 107.747 157.193L28.6203 202.889V86.7244L107.747 41.0282C110.272 39.5852 112.437 40.7877 112.437 43.6738V149.136Z" fill="#084F41"/>
<path d="M0 70.2497L28.6203 86.7244V202.889L0 186.414V70.2497Z" fill="#009C7D"/>
<path d="M4.20887 70.1295L30.6646 85.5219L28.6203 86.7244L1.92406 71.4523L4.20887 70.1295Z" fill="#009C7D"/>
<path d="M24.4114 113.781L4.68987 102.357V87.2054L24.4114 98.6294V113.781Z" fill="white"/>
<path d="M282.114 183.889L181.462 125.807L77.0823 65.5598C76.1202 64.9585 75.1582 64.9585 74.4367 65.199C74.3165 65.199 74.3164 65.3192 74.1962 65.3192L68.5443 68.6863L73.2342 70.8509V217.199C73.2342 219.604 74.9177 222.61 77.0823 223.813L177.734 281.895L277.304 339.376L278.627 346.11L284.88 342.503C284.88 342.503 284.88 342.503 285 342.503C285.722 342.142 286.082 341.3 286.082 340.098V190.503C285.962 188.098 284.278 185.091 282.114 183.889Z" fill="#35084F"/>
<path d="M275.741 187.617L175.089 129.534L70.7089 69.1674C68.5443 67.9648 66.8608 68.9269 66.8608 71.3319V220.807C66.8608 223.212 68.5443 226.218 70.7089 227.421L171.361 285.503L275.861 345.75C278.025 346.952 279.709 345.99 279.709 343.585V194.231C279.589 191.826 277.785 188.819 275.741 187.617Z" fill="#5D3972"/>
<path d="M169.316 269.148L75.3987 214.914V77.4648L169.316 131.699V269.148Z" fill="#D7CEDC"/>
<path d="M155.968 277.085L61.9304 222.851V85.4016L155.968 139.636V277.085Z" fill="#FBF6D5"/>
<path d="M155.968 139.636L169.316 131.699L75.3987 77.4648L61.9304 85.4015L155.968 139.636Z" fill="#D7CEDC"/>
<path d="M169.316 269.148V131.699L155.968 139.636V277.085L169.316 269.148Z" fill="#D7CEDC"/>
<path d="M273.816 329.515L179.779 275.281V137.832L273.816 192.066V329.515Z" fill="#D7CEDC"/>
<path d="M260.348 337.452L166.43 283.218V145.769L260.348 200.003V337.452Z" fill="#FBF6D5"/>
<path d="M260.348 200.003L273.816 192.066L179.778 137.832L166.43 145.769L260.348 200.003Z" fill="#D7CEDC"/>
<path d="M273.816 329.515V192.066L260.348 200.003V337.452L273.816 329.515Z" fill="#D7CEDC"/>
<path d="M155.968 139.636L166.43 145.769L179.778 137.832L169.316 131.699L155.968 139.636Z" fill="#D7CEDC"/>
<path d="M166.43 283.218L155.968 277.085V139.636L166.43 145.769V283.218Z" fill="#D7CEDC"/>
<path d="M159.576 275.041V146.009L162.703 147.813V276.845L159.576 275.041Z" fill="#B7B091"/>
<path d="M144.665 156.11L73.2342 114.864V108.009L144.665 149.256V156.11Z" fill="#D7CEDC"/>
<path d="M144.665 173.186L73.2342 131.94V125.085L144.665 166.332V173.186Z" fill="#D7CEDC"/>
<path d="M144.665 190.262L73.2342 149.015V142.161L144.665 183.408V190.262Z" fill="#D7CEDC"/>
<path d="M144.665 207.338L73.2342 166.091V159.237L144.665 200.484V207.338Z" fill="#D7CEDC"/>
<path d="M144.665 224.414L73.2342 183.167V176.313L144.665 217.56V224.414Z" fill="#D7CEDC"/>
<path d="M144.665 241.49L73.2342 200.243V193.389L144.665 234.636V241.49Z" fill="#D7CEDC"/>
<path d="M144.665 258.566L73.2342 217.319V210.465L144.665 251.712V258.566Z" fill="#D7CEDC"/>
<path d="M249.165 214.433L177.614 173.186V166.332L249.165 207.579V214.433Z" fill="#D7CEDC"/>
<path d="M249.165 231.509L177.614 190.262V183.408L249.165 224.655V231.509Z" fill="#D7CEDC"/>
<path d="M249.165 248.585L177.614 207.338V200.484L249.165 241.731V248.585Z" fill="#D7CEDC"/>
<path d="M249.165 265.661L177.614 224.414V217.56L249.165 258.807V265.661Z" fill="#D7CEDC"/>
<path d="M249.165 282.737L177.614 241.49V234.636L249.165 275.883V282.737Z" fill="#D7CEDC"/>
<path d="M249.165 299.813L177.614 258.566V251.591L249.165 292.958V299.813Z" fill="#D7CEDC"/>
<path d="M249.165 316.889L177.614 275.642V268.667L249.165 310.034V316.889Z" fill="#D7CEDC"/>
<path opacity="0.1" d="M102.456 397.579C113.414 397.579 122.297 392.464 122.297 386.155C122.297 379.845 113.414 374.731 102.456 374.731C91.4974 374.731 82.6139 379.845 82.6139 386.155C82.6139 392.464 91.4974 397.579 102.456 397.579Z" fill="black"/>
<path d="M100.051 379.421C100.051 379.421 99.2089 382.307 96.4431 385.674C95.962 386.275 95 386.636 94.1583 386.395C93.076 386.155 92.3545 385.193 92.3545 384.231V383.509L100.051 379.421Z" fill="#009C7D"/>
<path d="M100.051 379.421C100.291 379.06 100.171 378.579 99.9304 378.218C99.6899 377.978 99.4494 377.737 98.9684 377.857C97.8861 377.978 92.9557 380.503 92.9557 380.503C92.9557 380.503 91.5127 384.591 93.3165 385.072C95.1203 385.553 97.0443 385.674 100.051 379.421Z" fill="#084F41"/>
<path d="M113.038 386.636C113.038 386.636 114 387.598 112.798 388.56C111.835 389.281 107.146 390.243 105.101 390.724C104.38 390.845 103.779 390.724 103.177 390.364C102.456 389.883 101.975 389.041 101.975 388.199L102.095 383.87L113.038 386.636Z" fill="#009C7D"/>
<path d="M101.975 384.351C103.298 383.148 105.703 382.186 107.146 383.389C109.551 385.553 112.918 385.072 113.158 386.997C113.399 388.199 107.747 389.281 104.5 389.281H104.38C103.177 389.281 102.095 388.319 102.095 386.997L101.975 384.351Z" fill="#084F41"/>
<path d="M91.9937 268.186L92.3544 317.009C92.3544 318.091 91.5127 319.053 90.4304 319.053C89.3481 319.053 88.5063 318.332 88.3861 317.25L83.4557 268.788C83.2152 266.503 84.8987 264.338 87.3038 264.098C89.5886 263.857 91.7532 265.541 91.9937 267.946C91.9937 267.946 91.9937 268.066 91.9937 268.186Z" fill="#F89AB5"/>
<path d="M84.1772 275.281L84.2975 276.243C84.2975 276.243 86.5823 278.408 92.1139 275.762V273.838L84.1772 275.281Z" fill="#E6E6E6"/>
<path d="M93.076 273.959C90.6709 276.604 84.4177 276.845 82.6139 274.44L82.1329 260.971C82.1329 258.446 84.4177 256.402 87.3038 256.281C90.4304 256.281 92.9557 258.446 92.9557 261.212L93.076 273.959Z" fill="#A5C4E5"/>
<path d="M92.4747 315.446L92.595 320.737L90.5507 321.94L88.9874 322.661L87.5443 323.262L88.3861 315.446L90.1899 314.724L92.4747 315.446Z" fill="#F89AB5"/>
<path d="M91.6329 325.066C91.5126 325.066 91.3924 325.066 91.2721 324.946C90.9114 324.705 90.7911 324.345 91.0316 323.984C91.6329 322.902 91.1519 320.497 91.0316 319.775C90.9114 319.414 91.1519 318.933 91.5126 318.933C91.8734 318.813 92.3544 319.054 92.3544 319.414C92.4747 319.775 93.1962 322.902 92.2342 324.705C92.2342 324.946 91.9937 325.066 91.6329 325.066Z" fill="#F89AB5"/>
<path d="M93.3165 321.94C93.0759 321.94 92.8354 321.819 92.7152 321.579C91.7532 319.655 91.1519 317.971 91.1519 317.971C91.0316 317.61 91.2721 317.129 91.6329 317.009C91.9937 316.889 92.4747 317.129 92.5949 317.49C92.5949 317.49 93.1962 319.174 94.1582 320.857C94.3987 321.218 94.2785 321.699 93.9177 321.819C93.557 321.94 93.4367 321.94 93.3165 321.94Z" fill="#F89AB5"/>
<path d="M90.0696 325.667C89.9494 325.667 89.8291 325.667 89.5886 325.547C89.2278 325.307 89.2278 324.826 89.4684 324.465C90.1899 323.503 90.0696 321.098 89.9494 320.256C89.9494 319.895 90.1899 319.534 90.5506 319.414C90.9114 319.414 91.2722 319.655 91.3924 320.016C91.3924 320.376 91.7532 323.623 90.6709 325.186C90.5506 325.547 90.3101 325.667 90.0696 325.667Z" fill="#F89AB5"/>
<path d="M88.8671 324.946C88.7468 324.946 88.6266 324.946 88.3861 324.826C88.0253 324.585 88.0253 324.104 88.2658 323.743C88.9873 322.781 88.8671 320.376 88.7468 319.535C88.7468 319.174 88.9873 318.813 89.3481 318.693C89.7089 318.693 90.0696 318.933 90.1899 319.294C90.1899 319.655 90.5506 322.902 89.4684 324.465C89.3481 324.826 89.1076 324.946 88.8671 324.946Z" fill="#F89AB5"/>
<path d="M87.6646 323.984C87.4241 323.984 87.3038 323.864 87.1836 323.743C86.943 323.503 86.943 323.022 87.1836 322.661C88.0253 321.819 88.1456 319.895 88.1456 319.174C88.1456 318.813 88.3861 318.452 88.8671 318.452C89.2279 318.452 89.5886 318.693 89.5886 319.174C89.5886 319.534 89.7089 322.3 88.2658 323.743C88.0253 323.864 87.9051 323.984 87.6646 323.984Z" fill="#F89AB5"/>
<path d="M102.335 306.066C102.215 309.313 102.095 312.44 101.854 315.686C101.734 318.933 101.614 322.06 101.373 325.307L99.9304 344.547L96.924 383.028C96.8038 384.351 95.7215 385.313 94.3987 385.193C93.3165 385.072 92.3544 384.231 92.2342 383.148L88.0253 344.788L85.981 325.667C85.6202 322.421 85.3797 319.294 85.1392 316.047C84.8987 312.8 84.6582 309.674 84.4177 306.427C84.057 301.497 87.7848 297.167 92.7152 296.807C97.6456 296.446 101.975 300.174 102.335 305.104C102.335 305.465 102.456 305.705 102.335 306.066Z" fill="#35084F"/>
<path d="M112.076 307.148C111.956 310.395 111.835 313.522 111.595 316.769C111.475 320.015 111.354 323.142 111.114 326.389L109.671 345.629L106.665 384.11C106.544 385.433 105.462 386.395 104.139 386.275C103.057 386.155 102.095 385.313 101.975 384.231L97.7658 345.87L95.7215 326.75C95.3608 323.503 95.1203 320.376 94.8798 317.129C94.6392 313.883 94.3987 310.756 94.1582 307.509C93.7975 302.579 97.5253 298.25 102.456 297.889C107.386 297.528 111.715 301.256 112.076 306.186C112.196 306.547 112.196 306.908 112.076 307.148Z" fill="#5D3972"/>
<path d="M95.2405 320.256L85.1393 315.927C85.1393 315.927 83.2152 304.984 85.2595 302.218L97.1646 309.313L95.2405 320.256Z" fill="#5D3972"/>
<path d="M106.665 264.218L88.6266 256.642C88.1456 256.402 87.6646 256.522 87.1836 256.762C86.7025 257.003 86.462 257.484 86.3418 257.965C85.3798 263.256 83.2152 278.047 88.5063 288.509C88.5063 288.509 86.943 298.61 84.8987 301.978C84.8987 301.978 95.962 313.883 111.354 311.237L106.785 285.984C106.785 285.984 113.88 277.566 107.747 271.674L106.665 264.218Z" fill="#E9D12F"/>
<path d="M112.076 275.883L112.437 324.705C112.437 325.788 111.595 326.75 110.513 326.75C109.43 326.75 108.589 326.028 108.468 324.946L103.538 276.484C103.297 274.199 104.981 272.034 107.386 271.794C109.671 271.553 111.835 273.237 112.076 275.642C112.076 275.642 112.076 275.762 112.076 275.883Z" fill="#F89AB5"/>
<path d="M104.259 282.978L104.38 283.94C104.38 283.94 106.665 286.104 112.196 283.459V281.535L104.259 282.978Z" fill="#E6E6E6"/>
<path d="M113.158 281.775C110.753 284.421 104.5 284.661 102.696 282.256L102.215 268.788C102.215 266.262 104.5 264.218 107.386 264.098C110.513 264.098 113.038 266.262 113.038 269.028L113.158 281.775Z" fill="#AF9D23"/>
<path d="M112.437 323.142L112.677 328.433L110.513 329.756L109.07 330.357L107.506 330.959L108.348 323.142L110.152 322.541L112.437 323.142Z" fill="#F89AB5"/>
<path d="M111.715 332.883C111.595 332.883 111.475 332.883 111.354 332.762C110.994 332.522 110.873 332.161 111.114 331.8C111.715 330.718 111.234 328.313 111.114 327.591C110.994 327.231 111.234 326.75 111.595 326.75C111.956 326.629 112.437 326.87 112.437 327.231C112.557 327.591 113.278 330.718 112.316 332.522C112.196 332.762 111.956 332.883 111.715 332.883Z" fill="#F89AB5"/>
<path d="M113.399 329.636C113.158 329.636 112.918 329.516 112.797 329.275C111.835 327.351 111.234 325.667 111.234 325.667C111.114 325.307 111.354 324.826 111.715 324.705C112.076 324.585 112.557 324.826 112.677 325.186C112.677 325.186 113.278 326.87 114.24 328.554C114.481 328.914 114.361 329.395 114 329.516C113.639 329.636 113.519 329.636 113.399 329.636Z" fill="#F89AB5"/>
<path d="M110.152 333.364C110.032 333.364 109.911 333.364 109.671 333.243C109.31 333.003 109.31 332.522 109.551 332.161C110.272 331.199 110.152 328.794 110.032 327.952C110.032 327.591 110.272 327.231 110.633 327.11C110.994 327.11 111.354 327.351 111.475 327.712C111.475 328.072 111.835 331.319 110.753 332.883C110.633 333.243 110.392 333.364 110.152 333.364Z" fill="#F89AB5"/>
<path d="M108.949 332.642C108.829 332.642 108.709 332.642 108.468 332.522C108.108 332.281 108.108 331.8 108.348 331.44C109.07 330.478 108.949 328.072 108.829 327.231C108.829 326.87 109.07 326.509 109.43 326.389C109.791 326.389 110.152 326.629 110.272 326.99C110.272 327.351 110.633 330.598 109.551 332.161C109.43 332.522 109.19 332.642 108.949 332.642Z" fill="#F89AB5"/>
<path d="M107.747 331.68C107.506 331.68 107.386 331.56 107.266 331.44C107.025 331.199 107.025 330.718 107.266 330.357C108.108 329.516 108.228 327.591 108.228 326.87C108.228 326.509 108.468 326.148 108.949 326.148C109.31 326.148 109.671 326.389 109.671 326.87C109.671 327.231 109.791 329.997 108.348 331.44C108.108 331.56 107.867 331.68 107.747 331.68Z" fill="#F89AB5"/>
<path d="M99.0886 252.674L100.892 260.851C100.892 260.851 99.9304 263.857 96.2025 262.775C92.5949 261.572 93.1962 259.408 93.1962 259.408V254.478L99.0886 252.674Z" fill="#F89AB5"/>
<path d="M99.8101 255.56C99.8101 255.56 98.9684 257.484 93.1962 257.243V253.997L99.8101 255.56Z" fill="#DB8FAA"/>
<path d="M104.019 244.136C105.101 250.99 105.342 255.921 103.538 256.161C100.772 256.642 91.3924 256.883 90.1899 249.307C89.3481 243.895 90.9114 237.161 94.7595 236.56C101.133 235.478 103.177 238.724 104.019 244.136Z" fill="#F89AB5"/>
<path d="M103.538 243.053C103.538 243.053 101.013 243.414 101.133 246.541C101.253 250.028 101.614 253.155 103.658 254.598C104.861 255.44 107.146 257.604 106.905 261.091C106.665 264.579 104.26 268.667 104.981 270.351C105.703 272.035 108.589 276.364 107.747 280.332C106.905 284.06 105.222 286.465 100.411 287.186C99.8101 287.307 99.0886 287.186 98.4874 287.066C95.8418 286.224 87.5443 283.459 85.2595 281.053C83.3355 279.009 80.3291 277.446 81.1709 272.275C81.1709 272.275 78.0443 266.984 78.1646 264.098C78.2848 261.332 78.5253 256.762 82.8545 255.199C82.8545 255.199 80.5696 251.351 82.9747 246.3C85.3798 241.25 87.5443 240.528 88.0253 239.807C88.6266 239.085 89.1076 234.395 96.6836 233.794C96.6836 233.794 99.4494 233.794 100.892 235.237C100.892 235.237 101.614 235.838 102.456 235.117C102.456 235.117 102.937 236.319 102.456 236.921C102.456 236.921 103.297 236.56 103.658 236.44C103.658 236.44 103.778 237.041 103.658 237.402C103.658 236.921 106.665 241.25 103.538 243.053Z" fill="#35084F"/>
<path d="M44.6139 238.965L43.0506 282.978C43.0506 284.421 41.7279 285.623 40.2848 285.503C38.962 285.503 37.8798 284.421 37.7595 283.098L33.1899 239.205C32.8291 236.079 35.1139 233.193 38.2405 232.952C41.3671 232.591 44.2532 234.876 44.4937 238.003C44.6139 238.484 44.6139 238.724 44.6139 238.965Z" fill="#F89AB5"/>
<path d="M33.9114 246.661L34.0317 247.743C34.0317 247.743 37.6393 250.629 44.2532 247.503L44.3734 245.459L33.9114 246.661Z" fill="#E6E6E6"/>
<path d="M45.0949 245.338C42.2089 248.465 34.7532 248.705 32.7089 245.819L32.2279 229.826C32.2279 226.819 34.9937 224.294 38.481 224.294C42.2089 224.294 45.2152 226.94 45.2152 230.186V245.338H45.0949Z" fill="#009C7D"/>
<path d="M43.0506 283.579L42.9304 287.667L40.1646 289.11L38.1203 289.952L36.076 290.553L37.6392 282.256L40.1646 279.971L43.0506 283.579Z" fill="#F89AB5"/>
<path d="M41.4873 293.199C41.3671 293.199 41.1266 293.199 41.0063 293.079C40.5253 292.838 40.4051 292.237 40.7658 291.756C41.6076 290.433 41.2468 287.427 41.0063 286.465C40.8861 285.984 41.2468 285.383 41.7278 285.383C42.2089 285.262 42.8101 285.623 42.8101 286.104C42.9304 286.585 43.6519 290.674 42.3291 292.838C42.0886 293.079 41.8481 293.199 41.4873 293.199Z" fill="#F89AB5"/>
<path d="M43.8924 289.231C43.5317 289.231 43.1709 288.99 43.0506 288.75C41.8481 286.345 41.1266 284.06 41.1266 284.06C41.0063 283.579 41.2469 282.978 41.7279 282.857C42.2089 282.737 42.8101 282.978 42.9304 283.459C42.9304 283.459 43.5317 285.623 44.7342 287.908C44.9747 288.389 44.7342 288.99 44.2532 289.231C44.2532 289.231 44.0127 289.231 43.8924 289.231Z" fill="#F89AB5"/>
<path d="M39.3228 293.8C39.0823 293.8 38.8418 293.68 38.7215 293.56C38.3608 293.199 38.2405 292.598 38.6013 292.237C39.5633 291.034 39.6836 288.028 39.5633 286.946C39.5633 286.465 39.9241 285.984 40.4051 285.864C40.8861 285.864 41.3671 286.224 41.4873 286.705C41.4873 287.186 41.7279 291.275 40.0443 293.319C39.9241 293.68 39.6836 293.8 39.3228 293.8Z" fill="#F89AB5"/>
<path d="M37.7595 292.718C37.519 292.718 37.2785 292.598 37.1582 292.478C36.7975 292.117 36.6772 291.516 37.038 291.155C38 289.952 38.1203 286.946 38 285.864C38 285.383 38.3608 284.902 38.8418 284.781C39.3228 284.781 39.8038 285.142 39.9241 285.623C39.9241 286.104 40.1646 290.193 38.481 292.237C38.3608 292.598 38.1203 292.718 37.7595 292.718Z" fill="#F89AB5"/>
<path d="M36.3165 291.395C36.076 291.395 35.7152 291.275 35.5949 291.034C35.2342 290.674 35.3544 290.072 35.7152 289.712C36.9177 288.75 37.1582 286.224 37.1582 285.383C37.1582 284.902 37.6392 284.421 38.1203 284.421C38.6013 284.421 39.0823 284.902 39.0823 285.383C39.0823 285.743 38.962 289.471 36.9177 291.155C36.6772 291.395 36.557 291.395 36.3165 291.395Z" fill="#F89AB5"/>
<path opacity="0.1" d="M50.0253 367.516C61.9798 367.516 71.6709 361.916 71.6709 355.009C71.6709 348.102 61.9798 342.503 50.0253 342.503C38.0708 342.503 28.3798 348.102 28.3798 355.009C28.3798 361.916 38.0708 367.516 50.0253 367.516Z" fill="black"/>
<path d="M50.0253 343.345C50.0253 343.345 48.8228 347.674 44.7342 352.484C44.0127 353.446 42.8101 353.807 41.6076 353.566H41.3671C39.9241 353.205 38.962 352.003 38.962 350.44V349.237L50.0253 343.345Z" fill="#5D3972"/>
<path d="M50.0253 343.345C50.2658 342.743 50.2658 342.142 49.9051 341.541C49.6646 341.18 49.1835 340.819 48.5823 340.94C47.019 341.18 39.8038 344.908 39.8038 344.908C39.8038 344.908 37.6392 350.921 40.2848 351.642C42.8101 352.364 45.6962 352.484 50.0253 343.345Z" fill="#35084F"/>
<path d="M65.1772 358.617C65.1772 358.617 66.3798 359.819 64.8165 361.022C63.6139 361.984 57.7215 363.186 55.076 363.667C54.2342 363.788 53.3924 363.667 52.6709 363.186C51.7089 362.585 51.2279 361.503 51.2279 360.421L51.3481 355.009L65.1772 358.617Z" fill="#5D3972"/>
<path d="M51.2279 355.731C52.7911 354.288 55.9177 353.085 57.7215 354.528C60.8481 357.174 64.9367 356.572 65.2975 359.098C65.538 360.661 58.443 361.984 54.3544 361.984H54.2342C52.6709 361.984 51.3481 360.781 51.3481 359.218L51.2279 355.731Z" fill="#35084F"/>
<path d="M53.1519 265.421C52.6709 272.275 52.0696 279.129 51.3481 285.984L49.3038 306.547L48.8228 311.718C48.7025 313.402 48.5823 315.205 48.3418 316.889L47.5 327.231C46.8987 334.085 46.2975 340.94 45.6962 347.794C45.576 349.598 43.8924 350.921 42.0886 350.8C40.4051 350.68 39.2025 349.237 39.0823 347.674C38.7215 340.819 38.3608 333.845 38 326.99L37.519 316.648L37.2785 311.478L37.1582 306.307L36.557 285.623C36.3165 278.769 36.1962 271.794 36.1962 264.94C36.1962 260.25 40.0443 256.402 44.8544 256.402C49.5443 256.402 53.3924 260.25 53.3924 265.06C53.1519 265.06 53.1519 265.18 53.1519 265.421Z" fill="#35084F"/>
<path d="M46.7785 292.357C46.7785 291.876 36.3165 285.262 36.3165 285.262L35.8355 271.794L52.0696 281.294L46.7785 292.357Z" fill="#5D3972"/>
<path d="M63.0127 272.516C62.7722 279.37 62.2911 286.224 61.8101 293.079L60.2468 313.762L59.8861 318.933C59.7658 320.617 59.6456 322.421 59.5253 324.104L58.9241 334.326C58.5633 341.18 58.0823 348.035 57.7215 355.009C57.6013 356.813 56.038 358.256 54.2342 358.136C52.5506 358.015 51.2278 356.693 51.1076 355.129C50.5063 348.275 49.9051 341.3 49.424 334.446L48.5823 324.104L48.2215 318.933L47.8608 313.762L46.6582 293.079C46.2975 286.224 45.9367 279.25 45.6962 272.395C45.576 267.705 49.3038 263.737 54.1139 263.617C58.8038 263.497 62.7722 267.224 62.8924 272.034C63.0127 272.155 63.0127 272.275 63.0127 272.516Z" fill="#5D3972"/>
<path d="M34.5127 271.072C34.5127 271.072 34.9937 275.762 49.5443 281.895C61.9304 287.066 64.576 281.414 64.576 281.414C64.576 281.414 65.6582 249.908 64.095 243.294C62.4114 236.56 64.2152 238.484 60.8481 236.56C60.8481 236.56 41.8481 222.009 38.6013 225.376C34.6329 229.465 34.1519 245.819 36.557 256.161C35.9557 264.579 34.9937 269.87 34.5127 271.072Z" fill="#084F41"/>
<path d="M52.7912 242.813L51.8291 256.522L53.5127 258.205L57.2405 292.478L58.443 300.655L60.2468 252.072L57.8418 235.838L52.7912 242.813Z" fill="#E6E6E6"/>
<path d="M45.6962 224.053L44.4937 232.351C44.4937 232.351 45.576 235.718 49.5443 234.395C53.5127 233.193 52.9114 230.667 52.9114 230.667V225.256L45.6962 224.053Z" fill="#F89AB5"/>
<path d="M45.6962 224.534C45.6962 224.534 46.2975 227.902 52.9114 229.104V225.737L45.6962 224.534Z" fill="#DB8FAA"/>
<path d="M58.5633 213.231C58.9241 220.807 57.6013 225.857 53.3924 225.978C49.1835 226.218 42.5696 223.693 42.2089 215.395C41.9684 209.503 45.0949 204.452 49.3038 204.332C56.3987 204.091 58.3228 207.338 58.5633 213.231Z" fill="#F89AB5"/>
<path d="M52.6709 234.516C50.7468 235.598 47.7405 235.598 45.9367 234.516C44.0127 233.433 44.0127 231.629 45.9367 230.667C47.8608 229.585 50.8671 229.585 52.6709 230.667C54.4747 231.75 54.4747 233.433 52.6709 234.516Z" fill="#F89AB5"/>
<path d="M41.7279 205.895C44.8544 199.041 53.7532 201.927 53.7532 201.927L57.8418 205.053C58.3228 205.414 58.5633 206.016 58.5633 206.617C58.5633 207.218 58.2025 207.699 57.6013 208.06C56.6392 208.541 55.557 209.022 54.4747 209.383C53.3924 209.743 52.5506 210.585 52.0696 211.667L50.7468 215.155L50.3861 219.845L50.0253 221.769C49.7848 222.851 49.1836 223.813 48.1013 224.414C47.1392 224.895 45.9367 225.016 44.8544 224.534C39.6835 221.889 39.6836 210.224 41.7279 205.895Z" fill="#35084F"/>
<path d="M53.3924 215.756C53.5127 217.199 52.3101 218.402 50.8671 218.522C49.4241 218.642 48.2215 217.44 48.1013 215.997C47.981 214.553 49.1836 213.351 50.6266 213.231C52.0696 213.231 53.2722 214.313 53.3924 215.756Z" fill="#F89AB5"/>
<path d="M65.057 248.585L63.4937 292.598C63.4937 294.041 62.1709 295.243 60.7279 295.123C59.4051 295.123 58.3228 294.041 58.2025 292.718L53.6329 248.826C53.2722 245.699 55.557 242.813 58.6836 242.572C61.8101 242.332 64.6962 244.497 64.9367 247.623C65.057 248.104 65.057 248.345 65.057 248.585Z" fill="#F89AB5"/>
<path d="M54.4747 256.281L54.5949 257.364C54.5949 257.364 58.2025 260.25 64.8165 257.123L64.9367 255.079L54.4747 256.281Z" fill="#E6E6E6"/>
<path d="M65.6582 254.959C62.7722 258.085 55.3165 258.326 53.2722 255.44L52.7912 239.446C52.7912 236.44 55.557 233.914 59.0443 233.914C62.7722 233.914 65.7785 236.56 65.7785 239.807V254.959H65.6582Z" fill="#009C7D"/>
<path d="M63.4937 293.079V297.288L60.6076 298.731L58.5633 299.572L56.519 300.174L58.2025 291.876L60.7279 289.591L63.4937 293.079Z" fill="#F89AB5"/>
<path d="M62.0506 302.819C61.9304 302.819 61.6899 302.819 61.5696 302.699C61.0886 302.459 60.9684 301.857 61.3291 301.376C62.1709 300.053 61.8101 297.047 61.5696 296.085C61.4494 295.604 61.8101 295.003 62.2911 295.003C62.7722 294.883 63.3734 295.243 63.3734 295.724C63.4937 296.205 64.2152 300.294 62.8924 302.459C62.6519 302.699 62.2911 302.819 62.0506 302.819Z" fill="#F89AB5"/>
<path d="M64.4557 298.851C64.0949 298.851 63.7342 298.61 63.6139 298.37C62.4114 295.965 61.6899 293.68 61.6899 293.68C61.5696 293.199 61.8101 292.598 62.2912 292.478C62.7722 292.357 63.3734 292.598 63.4937 293.079C63.4937 293.079 64.0949 295.243 65.2975 297.528C65.538 298.009 65.2975 298.61 64.8165 298.851C64.6962 298.851 64.576 298.851 64.4557 298.851Z" fill="#F89AB5"/>
<path d="M59.8861 303.421C59.6456 303.421 59.4051 303.3 59.2848 303.18C58.924 302.819 58.8038 302.218 59.1646 301.857C60.1266 300.655 60.2468 297.648 60.1266 296.566C60.1266 296.085 60.4873 295.604 60.9684 295.484C61.4494 295.484 61.9304 295.845 62.0506 296.326C62.0506 296.807 62.2911 300.895 60.6076 302.94C60.3671 303.3 60.1266 303.421 59.8861 303.421Z" fill="#F89AB5"/>
<path d="M58.3228 302.338C58.0823 302.338 57.8418 302.218 57.7215 302.098C57.3608 301.737 57.2405 301.136 57.6013 300.775C58.5633 299.572 58.6836 296.566 58.5633 295.484C58.5633 295.003 58.9241 294.522 59.4051 294.402C59.8861 294.402 60.3671 294.762 60.4874 295.243C60.4874 295.724 60.7279 299.813 59.0443 301.857C58.8038 302.218 58.5633 302.338 58.3228 302.338Z" fill="#F89AB5"/>
<path d="M56.7595 301.016C56.519 301.016 56.1582 300.895 56.038 300.655C55.6772 300.294 55.7975 299.693 56.1582 299.332C57.3608 298.37 57.6013 295.845 57.6013 295.003C57.6013 294.522 58.0823 294.041 58.5633 294.041C59.0443 294.041 59.5253 294.522 59.5253 295.003C59.5253 295.364 59.4051 299.091 57.3608 300.775C57.2405 301.016 57 301.016 56.7595 301.016Z" fill="#F89AB5"/>
</svg>
